<svg width="176" height="134" viewBox="0 0 176 134" fill="none" xmlns="http://www.w3.org/2000/svg">
<g clip-path="url(#clip0)">
<path opacity="0.24" d="M175.567 100.259C174.381 107.705 170.214 114.507 164.412 119.318C164.007 119.648 163.605 119.96 163.194 120.271C163.194 120.271 163.176 120.271 163.166 120.29C159.142 123.352 154.421 125.367 149.426 126.154C140.252 127.524 131.009 124.765 121.753 124.285C105.164 123.416 89.1756 129.822 72.8322 132.753C56.4888 135.683 37.2585 134.039 26.8944 121.056C26.8321 120.984 26.7823 120.913 26.72 120.832C23.4407 116.634 21.376 111.639 18.7818 106.958C18.3334 106.142 17.8704 105.343 17.3929 104.56C12.7963 97.1107 6.04467 91.013 2.52872 83.0033C0.803586 79.0077 -0.0571665 74.6926 0.0029449 70.3409C0.0630563 65.9893 1.04267 61.6996 2.87751 57.7532C6.18793 50.7431 12.0084 45.2963 17.6887 40.0177C18.0562 39.6814 18.4143 39.3451 18.7818 39.0056C23.6545 34.4796 28.5335 29.9547 33.4186 25.4307C36.1031 22.9394 38.7907 20.448 41.581 18.075C45.2776 14.8985 49.1174 11.9368 53.306 9.4735C63.5145 3.44749 73.2184 4.13262 84.3019 2.24229C97.1138 0.062333 110.231 -1.83423 122.691 3.10181C129.966 5.97312 136.207 10.8874 142.335 15.7175L145.322 18.075C150.927 22.5003 156.533 26.9318 162.045 31.4474C163.25 32.4377 164.465 33.4499 165.599 34.5336C167.355 36.2091 168.918 38.0558 169.921 40.2544C171.126 42.8797 171.431 45.8102 171.727 48.6815C172.923 60.5155 174.125 72.3495 175.334 84.1836C175.863 89.5307 176.405 94.9463 175.567 100.259Z" fill="#F20C0C"/>
<path d="M41.5841 18.075C38.7813 20.4449 36.1062 22.9487 33.4217 25.4307C28.547 29.9567 23.668 34.4817 18.7849 39.0056V22.6529C18.7837 22.0513 18.9013 21.4555 19.1309 20.8995C19.3605 20.3435 19.6977 19.8384 20.123 19.4131C20.5484 18.9877 21.0535 18.6506 21.6095 18.4209C22.1654 18.1913 22.7613 18.0737 23.3628 18.075H41.5841Z" fill="url(#paint0_linear)"/>
<path d="M165.586 34.5335V116.254C165.588 117.385 165.17 118.478 164.412 119.318C164.062 119.703 163.65 120.029 163.194 120.28C163.194 120.28 163.176 120.28 163.166 120.299C162.502 120.649 161.762 120.832 161.011 120.832H26.7199C23.4406 116.634 21.3759 111.638 18.7817 106.958V39.0055C23.6545 34.4795 28.5334 29.9546 33.4186 25.4307C36.103 22.9393 38.7906 20.4479 41.5809 18.0749H145.322C150.927 22.5002 156.533 26.9317 162.045 31.4473C163.238 32.4501 164.452 33.4498 165.586 34.5335Z" fill="url(#paint1_linear)"/>
<path d="M156.985 14.3316H19.3299C16.8033 14.3316 14.7551 16.3798 14.7551 18.9064V112.52C14.7551 115.046 16.8033 117.095 19.3299 117.095H156.985C159.511 117.095 161.559 115.046 161.559 112.52V18.9064C161.559 16.3798 159.511 14.3316 156.985 14.3316Z" fill="#F20C0C"/>
<path d="M161.563 18.9126V112.517C161.562 113.73 161.079 114.894 160.221 115.752C159.362 116.61 158.198 117.091 156.985 117.091H19.3362C18.7349 117.093 18.1394 116.975 17.5836 116.746C17.0278 116.516 16.5228 116.179 16.0975 115.754C15.6722 115.329 15.335 114.825 15.1052 114.269C14.8754 113.713 14.7575 113.118 14.7583 112.517V18.9126C14.7575 18.3116 14.8753 17.7164 15.1049 17.161C15.3345 16.6055 15.6714 16.1009 16.0964 15.6759C16.5214 15.251 17.026 14.914 17.5814 14.6844C18.1368 14.4548 18.7321 14.337 19.3331 14.3378H156.982C157.583 14.3374 158.178 14.4554 158.734 14.6851C159.289 14.9148 159.794 15.2517 160.219 15.6765C160.645 16.1013 160.982 16.6057 161.213 17.161C161.443 17.7162 161.562 18.3114 161.563 18.9126Z" fill="url(#paint2_linear)"/>
<path opacity="0.24" d="M161.563 18.9126V25.085H14.7583V18.9126C14.7575 18.3116 14.8753 17.7164 15.1049 17.161C15.3345 16.6055 15.6714 16.1009 16.0964 15.6759C16.5214 15.251 17.026 14.914 17.5814 14.6844C18.1368 14.4548 18.7321 14.337 19.3331 14.3378H156.982C157.583 14.3374 158.178 14.4554 158.734 14.6851C159.289 14.9148 159.794 15.2517 160.219 15.6765C160.645 16.1013 160.982 16.6057 161.213 17.161C161.443 17.7162 161.562 18.3114 161.563 18.9126Z" fill="#F20C0C"/>
<path d="M161.563 18.9126V25.085H14.7583V18.9126C14.7575 18.3116 14.8753 17.7164 15.1049 17.161C15.3345 16.6055 15.6714 16.1009 16.0964 15.6759C16.5214 15.251 17.026 14.914 17.5814 14.6844C18.1368 14.4548 18.7321 14.337 19.3331 14.3378H156.982C157.583 14.3374 158.178 14.4554 158.734 14.6851C159.289 14.9148 159.794 15.2517 160.219 15.6765C160.645 16.1013 160.982 16.6057 161.213 17.161C161.443 17.7162 161.562 18.3114 161.563 18.9126Z" fill="#F20C0C"/>
<path d="M161.563 18.9126V25.085H14.7583V18.9126C14.7575 18.3116 14.8753 17.7164 15.1049 17.161C15.3345 16.6055 15.6714 16.1009 16.0964 15.6759C16.5214 15.251 17.026 14.914 17.5814 14.6844C18.1368 14.4548 18.7321 14.337 19.3331 14.3378H156.982C157.583 14.3374 158.178 14.4554 158.734 14.6851C159.289 14.9148 159.794 15.2517 160.219 15.6765C160.645 16.1013 160.982 16.6057 161.213 17.161C161.443 17.7162 161.562 18.3114 161.563 18.9126Z" fill="url(#paint3_linear)"/>
<path opacity="0.24" d="M61.5433 43.8762H27.4115C25.5058 43.8762 23.9609 45.4211 23.9609 47.3268V47.3299C23.9609 49.2356 25.5058 50.7804 27.4115 50.7804H61.5433C63.449 50.7804 64.9939 49.2356 64.9939 47.3299V47.3268C64.9939 45.4211 63.449 43.8762 61.5433 43.8762Z" fill="#F20C0C"/>
<path d="M44.4649 90.8542H27.4115C25.5058 90.8542 23.9609 92.3991 23.9609 94.3047V94.3079C23.9609 96.2135 25.5058 97.7584 27.4115 97.7584H44.4649C46.3706 97.7584 47.9155 96.2135 47.9155 94.3079V94.3047C47.9155 92.3991 46.3706 90.8542 44.4649 90.8542Z" fill="#F20C0C"/>
<path d="M44.4649 90.8542H27.4115C25.5058 90.8542 23.9609 92.3991 23.9609 94.3047V94.3079C23.9609 96.2135 25.5058 97.7584 27.4115 97.7584H44.4649C46.3706 97.7584 47.9155 96.2135 47.9155 94.3079V94.3047C47.9155 92.3991 46.3706 90.8542 44.4649 90.8542Z" fill="url(#paint4_linear)"/>
<path opacity="0.24" d="M47.3859 53.7016H27.0532C26.0866 53.7016 25.303 54.4852 25.303 55.4518V55.4549C25.303 56.4215 26.0866 57.2051 27.0532 57.2051H47.3859C48.3525 57.2051 49.1361 56.4215 49.1361 55.4549V55.4518C49.1361 54.4852 48.3525 53.7016 47.3859 53.7016Z" fill="#F20C0C"/>
<path opacity="0.24" d="M161.254 25.085V114.824H161.223C161.223 114.824 161.223 114.824 161.204 114.824C161.162 114.796 161.117 114.772 161.07 114.753C160.734 114.597 159.959 114.242 158.803 113.7C158.669 113.638 158.539 113.575 158.395 113.516L157.701 113.189C157.536 113.118 157.374 113.037 157.209 112.965C155.829 112.32 154.135 111.533 152.195 110.623C151.6 110.349 150.99 110.063 150.345 109.757L128.156 99.4058C127.708 99.2033 127.269 98.9884 126.82 98.7829C126.126 98.4559 125.419 98.1289 124.715 97.8019C124.07 97.4905 123.417 97.2009 122.763 96.8926C121.037 96.087 119.315 95.2836 117.596 94.4822C117.064 94.2393 116.522 93.9932 115.992 93.7379C115.092 93.3175 114.205 92.9001 113.314 92.4922C113.003 92.3365 112.672 92.1808 112.345 92.0406L111.436 91.6202C110.854 91.3524 110.281 91.0877 109.708 90.8105C107.135 89.6178 104.632 88.4531 102.262 87.3382C101.729 87.1046 101.209 86.8586 100.689 86.6126C99.1318 85.8869 97.6246 85.1831 96.2045 84.5198C95.4976 84.1928 94.8249 83.8751 94.1616 83.57L93.0031 83.0343L92.2992 82.7073L91.6048 82.3803L90.5117 81.8696C89.512 81.3993 88.5809 80.9727 87.7089 80.5741C87.4535 80.4495 87.2075 80.3374 86.9708 80.2253C86.2172 79.8672 85.5321 79.5526 84.9279 79.2661C84.7255 79.1851 84.5417 79.0917 84.358 79.0107C83.5296 78.6215 82.885 78.3256 82.4677 78.1325C82.3879 78.0867 82.3058 78.0452 82.2216 78.008C81.876 77.846 81.5365 77.681 81.2095 77.5097C80.6178 77.1983 80.0573 76.8868 79.5341 76.5754C79.3005 76.4322 79.0669 76.2796 78.8396 76.1239C78.7922 76.1036 78.7481 76.0763 78.7088 76.0429C78.5126 75.9121 78.3195 75.7688 78.1265 75.6256C77.8182 75.4124 77.5209 75.1837 77.2358 74.9405C77.0427 74.7754 76.8496 74.6135 76.6659 74.4484C76.6659 74.4484 76.6441 74.4484 76.6347 74.4204C76.4417 74.246 76.2455 74.0623 76.0617 73.8785C76.0617 73.8785 76.0617 73.8785 76.043 73.8567C75.8157 73.6418 75.6133 73.4176 75.4202 73.2027C75.2271 72.9878 75.0216 72.7543 74.8503 72.5301C74.679 72.3058 74.4922 72.0692 74.3271 71.8356C74.1621 71.602 74.0001 71.3653 73.8569 71.1287C73.7136 70.892 73.5735 70.6491 73.4489 70.4062C73.0679 69.6875 72.7552 68.9347 72.5146 68.1577C71.5119 64.8784 71.8077 61.3064 72.9631 57.6472C72.9796 57.5805 73.0004 57.515 73.0254 57.451C75.3735 50.1575 81.0538 42.59 86.3947 36.6231C90.0118 32.6004 93.8835 28.814 97.9858 25.2874L161.254 25.085Z" fill="#F20C0C"/>
<path opacity="0.24" d="M161.254 42.1043V82.34C161.22 82.3461 161.185 82.3461 161.151 82.34C161.052 82.3586 160.949 82.368 160.84 82.3804C155.773 82.7884 150.738 81.1939 145.661 81.2562C141.747 81.2873 137.929 82.2995 134.095 83.106C123.943 85.2379 113.546 85.9662 103.196 85.2704C100.866 85.1085 98.5246 84.8718 96.1982 84.495C91.3743 83.7071 86.675 82.315 82.5393 79.7427C80.0458 78.1992 77.8591 76.2079 76.0897 73.8693C76.0897 73.8693 76.0897 73.8693 76.0711 73.8475C75.7939 73.48 75.5292 73.1125 75.2832 72.7357C74.3215 71.2872 73.559 69.716 73.016 68.0644C72.9039 67.728 72.8011 67.3917 72.7046 67.0429L72.9818 57.6473C72.9983 57.5806 73.0191 57.5151 73.044 57.4511C75.3922 50.1576 81.0725 42.5901 86.4134 36.6232H87.9175V43.8482H90.5117V38.0558H93.5761V43.4403H97.6744V49.7341H102.293V43.5929H110.362V49.7341H117.422V40.08H121.031V43.1942H124.055V49.7341H127.079V45.3742H130.775V49.7341H132.8V42.5714H136.325V39.6503H143.045V49.7341H146.016V33.8173H152.74V49.7341H155.543V36.5142H160.7V42.1198L161.254 42.1043Z" fill="#F20C0C"/>
<path d="M161.254 114.824C161.254 114.824 87.849 80.6333 82.2496 78.0081C76.6503 75.3828 73.7104 72.0007 72.5364 68.1516L161.061 52.1227L161.254 114.824Z" fill="#F20C0C"/>
<path d="M161.254 114.824C161.254 114.824 87.849 80.6333 82.2496 78.0081C76.6503 75.3828 73.7104 72.0007 72.5364 68.1516L161.061 52.1227L161.254 114.824Z" fill="url(#paint5_linear)"/>
<path d="M102.096 76.8589L160.771 64.4893V71.68L112.451 82.3213L102.096 76.8589Z" fill="url(#paint6_linear)"/>
<path d="M53.9695 66.4543H24.8235V72.0163H53.9695V66.4543Z" fill="url(#paint7_linear)"/>
<path d="M53.9695 73.645H24.8235V79.207H53.9695V73.645Z" fill="url(#paint8_linear)"/>
<path d="M121.679 68.7931C122.289 68.7931 122.784 68.22 122.784 67.5132C122.784 66.8063 122.289 66.2332 121.679 66.2332C121.068 66.2332 120.573 66.8063 120.573 67.5132C120.573 68.22 121.068 68.7931 121.679 68.7931Z" fill="#F20C0C"/>
<path d="M121.682 68.7931C122.292 68.7931 122.787 68.22 122.787 67.5132C122.787 66.8063 122.292 66.2332 121.682 66.2332C121.071 66.2332 120.576 66.8063 120.576 67.5132C120.576 68.22 121.071 68.7931 121.682 68.7931Z" fill="url(#paint9_linear)"/>
<path d="M122.003 68.4723C122.341 68.4723 122.616 68.0415 122.616 67.51C122.616 66.9786 122.341 66.5477 122.003 66.5477C121.664 66.5477 121.389 66.9786 121.389 67.51C121.389 68.0415 121.664 68.4723 122.003 68.4723Z" fill="url(#paint10_linear)"/>
<path d="M123.009 65.7723C123.009 65.7723 122.485 66.8996 122.974 67.3294C123.192 67.5305 123.429 67.7099 123.681 67.865L123.466 68.1765L121.778 67.538C121.778 67.538 121.641 67.2858 121.813 67.1488C121.813 67.1488 122.087 67.2079 122.202 67.0366C122.316 66.6464 122.393 66.2459 122.429 65.8408L123.009 65.7723Z" fill="#F20C0C"/>
<path d="M123.009 65.7723C123.009 65.7723 122.485 66.8996 122.974 67.3294C123.192 67.5305 123.429 67.7099 123.681 67.865L123.466 68.1765L121.778 67.538C121.778 67.538 121.641 67.2858 121.813 67.1488C121.813 67.1488 122.087 67.2079 122.202 67.0366C122.316 66.6464 122.393 66.2459 122.429 65.8408L123.009 65.7723Z" fill="url(#paint11_linear)"/>
<path d="M130.781 55.9127C133.248 55.5483 136.427 54.9348 138.747 54.5923C139.451 54.4895 141.117 54.4054 141.824 54.3525C142.357 54.3151 143.87 50.4161 144.088 49.9334C145.384 47.0496 146.707 44.1783 148.022 41.3039C148.062 41.2167 148.112 41.1295 148.146 41.0392C148.52 39.9928 148.314 39.8184 147.212 39.862C144.699 39.9648 142.852 41.2883 141.295 43.0634C138.803 45.9067 136.424 48.831 133.995 51.721C133.973 51.7739 130.89 55.7258 130.781 55.9127Z" fill="#F20C0C"/>
<path d="M130.781 55.9127C133.248 55.5483 136.427 54.9348 138.747 54.5923C139.451 54.4895 141.117 54.4054 141.824 54.3525C142.357 54.3151 143.87 50.4161 144.088 49.9334C145.384 47.0496 146.707 44.1783 148.022 41.3039C148.062 41.2167 148.112 41.1295 148.146 41.0392C148.52 39.9928 148.314 39.8184 147.212 39.862C144.699 39.9648 142.852 41.2883 141.295 43.0634C138.803 45.9067 136.424 48.831 133.995 51.721C133.973 51.7739 130.89 55.7258 130.781 55.9127Z" fill="url(#paint12_linear)"/>
<path d="M140.454 63.5145C142.422 63.2031 144.26 62.929 146.085 62.6082C150.921 61.7612 155.739 60.7615 160.229 58.7217C161.58 58.0815 162.858 57.2985 164.041 56.386C165.237 55.4923 165.673 54.2559 165.38 52.6801C164.758 49.3572 164.294 46.0063 163.77 42.6679C163.58 41.4565 162.93 41.0174 161.749 41.3444C160.746 41.6246 159.983 42.1914 159.635 43.2129C159.065 44.8852 158.52 46.5669 157.934 48.2299C157.722 48.8543 157.462 49.4613 157.156 50.0455C156.98 50.3694 156.728 50.6459 156.423 50.8515C156.117 51.057 155.766 51.1854 155.399 51.2258C142.681 53.2791 129.962 55.3386 117.244 57.4044C114.018 57.9245 111.075 59.0175 108.727 61.3781C107.571 62.5397 106.643 63.8695 106.316 65.5107C106.089 66.6598 106.316 67.0491 107.487 67.1083C109.199 67.2344 110.917 67.2344 112.629 67.1083C117.163 66.6661 121.685 66.1055 126.21 65.5512C126.831 65.4529 127.466 65.5931 127.988 65.9436C134.41 69.992 140.856 74.0156 147.281 78.0641C149.364 79.3783 151.575 79.4157 153.873 78.8645C154.281 78.7679 154.406 78.4907 154.185 78.1513C153.946 77.7528 153.665 77.3811 153.347 77.0426C149.243 72.7471 145.138 68.4536 141.033 64.1622C140.865 63.9878 140.71 63.801 140.454 63.5145Z" fill="#F20C0C"/>
<path d="M164.035 56.386C162.856 57.3016 161.58 58.0839 160.229 58.7186C155.723 60.7646 150.918 61.7612 146.088 62.602C144.263 62.9134 142.425 63.1999 140.457 63.5082C140.716 63.7947 140.871 63.9878 141.04 64.156C145.144 68.4567 149.249 72.7419 153.341 77.0551C153.661 77.3896 153.943 77.7582 154.182 78.1544C154.39 78.4907 154.26 78.7772 153.87 78.8676C151.578 79.425 149.364 79.3845 147.281 78.0641C140.856 74.0156 134.409 70.0107 127.972 65.9436C127.449 65.6002 126.817 65.4617 126.197 65.5543C121.666 66.0993 117.147 66.6567 112.616 67.0958C110.905 67.2251 109.186 67.2251 107.475 67.0958C106.297 67.0335 106.076 66.6442 106.297 65.5044C106.634 63.8477 107.543 62.5273 108.705 61.3719C111.062 59.0051 113.999 57.9151 117.225 57.3981C129.954 55.3386 142.675 53.2749 155.387 51.2071C155.753 51.1714 156.104 51.0451 156.409 50.8396C156.714 50.634 156.963 50.3558 157.134 50.0299C157.451 49.4489 157.72 48.8427 157.937 48.2174C158.52 46.5451 159.065 44.8759 159.635 43.1942C159.983 42.1821 160.746 41.6122 161.743 41.3257C162.936 41.0142 163.583 41.4409 163.764 42.6461C164.231 45.6108 164.658 48.588 165.187 51.5559C165.24 51.9296 165.318 52.2939 165.383 52.6676C165.667 54.2497 165.253 55.4953 164.035 56.386Z" fill="url(#paint13_linear)"/>
<path d="M153.858 78.8676C151.566 79.425 149.351 79.3846 147.268 78.0641C140.843 74.0156 134.397 70.0108 127.96 65.9436C127.436 65.6003 126.804 65.4617 126.185 65.5543C121.654 66.0993 117.135 66.6568 112.604 67.0959C110.892 67.2251 109.174 67.2251 107.462 67.0959C106.285 67.0336 106.064 66.6443 106.285 65.5045L122.149 63.636C124.591 63.3511 127.063 63.7715 129.274 64.8474L130.149 65.2709C130.149 65.2709 148.38 77.5472 150.934 77.7807C153.487 78.0143 154.169 78.1295 154.169 78.1295C154.39 78.4908 154.259 78.7773 153.858 78.8676Z" fill="url(#paint14_linear)"/>
<path d="M164.035 56.386C162.857 57.3016 161.58 58.0839 160.23 58.7185C155.723 60.7646 150.918 61.7611 146.088 62.602C144.263 62.9134 142.426 63.1999 140.458 63.5082L139.056 61.9168C139.056 61.9168 157.467 58.5504 160.488 55.9095C163.235 53.4991 164.917 51.8423 165.188 51.5714C165.24 51.9451 165.318 52.3095 165.384 52.6832C165.667 54.2496 165.253 55.4953 164.035 56.386Z" fill="url(#paint15_linear)"/>
<path d="M123.572 69.4875C124.183 69.4875 124.678 68.9144 124.678 68.2076C124.678 67.5007 124.183 66.9276 123.572 66.9276C122.962 66.9276 122.467 67.5007 122.467 68.2076C122.467 68.9144 122.962 69.4875 123.572 69.4875Z" fill="#F20C0C"/>
<path d="M123.575 69.4875C124.186 69.4875 124.681 68.9144 124.681 68.2076C124.681 67.5007 124.186 66.9276 123.575 66.9276C122.965 66.9276 122.47 67.5007 122.47 68.2076C122.47 68.9144 122.965 69.4875 123.575 69.4875Z" fill="url(#paint16_linear)"/>
<path d="M123.896 69.1667C124.235 69.1667 124.509 68.7359 124.509 68.2044C124.509 67.673 124.235 67.2421 123.896 67.2421C123.557 67.2421 123.282 67.673 123.282 68.2044C123.282 68.7359 123.557 69.1667 123.896 69.1667Z" fill="url(#paint17_linear)"/>
</g>
<defs>
<linearGradient id="paint0_linear" x1="30.3947" y1="38.7658" x2="29.9618" y2="17.9379" gradientUnits="userSpaceOnUse">
<stop stop-color="white" stop-opacity="0"/>
<stop offset="0.13" stop-color="white" stop-opacity="0.23"/>
<stop offset="0.23" stop-color="white" stop-opacity="0.41"/>
<stop offset="0.35" stop-color="white" stop-opacity="0.59"/>
<stop offset="0.48" stop-color="white" stop-opacity="0.74"/>
<stop offset="0.6" stop-color="white" stop-opacity="0.85"/>
<stop offset="0.72" stop-color="white" stop-opacity="0.93"/>
<stop offset="0.84" stop-color="white" stop-opacity="0.98"/>
<stop offset="0.95" stop-color="white"/>
</linearGradient>
<linearGradient id="paint1_linear" x1="197.824" y1="196.414" x2="-59.3072" y2="-103.862" gradientUnits="userSpaceOnUse">
<stop stop-color="#010101" stop-opacity="0"/>
<stop offset="0.95" stop-color="#010101"/>
</linearGradient>
<linearGradient id="paint2_linear" x1="42822.9" y1="51007.9" x2="42025.8" y2="-3662.98" gradientUnits="userSpaceOnUse">
<stop stop-color="white" stop-opacity="0"/>
<stop offset="0.13" stop-color="white" stop-opacity="0.23"/>
<stop offset="0.23" stop-color="white" stop-opacity="0.41"/>
<stop offset="0.35" stop-color="white" stop-opacity="0.59"/>
<stop offset="0.48" stop-color="white" stop-opacity="0.74"/>
<stop offset="0.6" stop-color="white" stop-opacity="0.85"/>
<stop offset="0.72" stop-color="white" stop-opacity="0.93"/>
<stop offset="0.84" stop-color="white" stop-opacity="0.98"/>
<stop offset="0.95" stop-color="white"/>
</linearGradient>
<linearGradient id="paint3_linear" x1="41560.4" y1="845.631" x2="41589.8" y2="4423.55" gradientUnits="userSpaceOnUse">
<stop stop-color="#010101" stop-opacity="0"/>
<stop offset="0.95" stop-color="#010101"/>
</linearGradient>
<linearGradient id="paint4_linear" x1="2792.39" y1="2105.72" x2="2789.32" y2="2775.44" gradientUnits="userSpaceOnUse">
<stop stop-color="#010101" stop-opacity="0"/>
<stop offset="0.95" stop-color="#010101"/>
</linearGradient>
<linearGradient id="paint5_linear" x1="30153.2" y1="8951.99" x2="44988.7" y2="56607.2" gradientUnits="userSpaceOnUse">
<stop stop-color="white" stop-opacity="0"/>
<stop offset="0.13" stop-color="white" stop-opacity="0.23"/>
<stop offset="0.23" stop-color="white" stop-opacity="0.41"/>
<stop offset="0.35" stop-color="white" stop-opacity="0.59"/>
<stop offset="0.48" stop-color="white" stop-opacity="0.74"/>
<stop offset="0.6" stop-color="white" stop-opacity="0.85"/>
<stop offset="0.72" stop-color="white" stop-opacity="0.93"/>
<stop offset="0.84" stop-color="white" stop-opacity="0.98"/>
<stop offset="0.95" stop-color="white"/>
</linearGradient>
<linearGradient id="paint6_linear" x1="22233.1" y1="4457.76" x2="52854.6" y2="-13005" gradientUnits="userSpaceOnUse">
<stop stop-color="#010101" stop-opacity="0"/>
<stop offset="0.95" stop-color="#010101"/>
</linearGradient>
<linearGradient id="paint7_linear" x1="3692.26" y1="1004.54" x2="3693.73" y2="1618.51" gradientUnits="userSpaceOnUse">
<stop stop-color="white" stop-opacity="0"/>
<stop offset="0.13" stop-color="white" stop-opacity="0.23"/>
<stop offset="0.23" stop-color="white" stop-opacity="0.41"/>
<stop offset="0.35" stop-color="white" stop-opacity="0.59"/>
<stop offset="0.48" stop-color="white" stop-opacity="0.74"/>
<stop offset="0.6" stop-color="white" stop-opacity="0.85"/>
<stop offset="0.72" stop-color="white" stop-opacity="0.93"/>
<stop offset="0.84" stop-color="white" stop-opacity="0.98"/>
<stop offset="0.95" stop-color="white"/>
</linearGradient>
<linearGradient id="paint8_linear" x1="3683.81" y1="1011.73" x2="3685.27" y2="1625.7" gradientUnits="userSpaceOnUse">
<stop stop-color="white" stop-opacity="0"/>
<stop offset="0.13" stop-color="white" stop-opacity="0.23"/>
<stop offset="0.23" stop-color="white" stop-opacity="0.41"/>
<stop offset="0.35" stop-color="white" stop-opacity="0.59"/>
<stop offset="0.48" stop-color="white" stop-opacity="0.74"/>
<stop offset="0.6" stop-color="white" stop-opacity="0.85"/>
<stop offset="0.72" stop-color="white" stop-opacity="0.93"/>
<stop offset="0.84" stop-color="white" stop-opacity="0.98"/>
<stop offset="0.95" stop-color="white"/>
</linearGradient>
<linearGradient id="paint9_linear" x1="1002.18" y1="605.652" x2="975.826" y2="622.985" gradientUnits="userSpaceOnUse">
<stop stop-color="#010101" stop-opacity="0"/>
<stop offset="0.95" stop-color="#010101"/>
</linearGradient>
<linearGradient id="paint10_linear" x1="608.434" y1="476.195" x2="597.442" y2="481.523" gradientUnits="userSpaceOnUse">
<stop stop-color="#010101" stop-opacity="0"/>
<stop offset="0.95" stop-color="#010101"/>
</linearGradient>
<linearGradient id="paint11_linear" x1="895.523" y1="674.413" x2="899.542" y2="674.11" gradientUnits="userSpaceOnUse">
<stop stop-color="#010101" stop-opacity="0"/>
<stop offset="0.95" stop-color="#010101"/>
</linearGradient>
<linearGradient id="paint12_linear" x1="7884.61" y1="3549.52" x2="8086.22" y2="2936.56" gradientUnits="userSpaceOnUse">
<stop stop-color="white" stop-opacity="0"/>
<stop offset="0.13" stop-color="white" stop-opacity="0.23"/>
<stop offset="0.23" stop-color="white" stop-opacity="0.41"/>
<stop offset="0.35" stop-color="white" stop-opacity="0.59"/>
<stop offset="0.48" stop-color="white" stop-opacity="0.74"/>
<stop offset="0.6" stop-color="white" stop-opacity="0.85"/>
<stop offset="0.72" stop-color="white" stop-opacity="0.93"/>
<stop offset="0.84" stop-color="white" stop-opacity="0.98"/>
<stop offset="0.95" stop-color="white"/>
</linearGradient>
<linearGradient id="paint13_linear" x1="24928.7" y1="10749.8" x2="25403.7" y2="8880.93" gradientUnits="userSpaceOnUse">
<stop stop-color="white" stop-opacity="0"/>
<stop offset="0.13" stop-color="white" stop-opacity="0.23"/>
<stop offset="0.23" stop-color="white" stop-opacity="0.41"/>
<stop offset="0.35" stop-color="white" stop-opacity="0.59"/>
<stop offset="0.48" stop-color="white" stop-opacity="0.74"/>
<stop offset="0.6" stop-color="white" stop-opacity="0.85"/>
<stop offset="0.72" stop-color="white" stop-opacity="0.93"/>
<stop offset="0.84" stop-color="white" stop-opacity="0.98"/>
<stop offset="0.95" stop-color="white"/>
</linearGradient>
<linearGradient id="paint14_linear" x1="21252.9" y1="3481.09" x2="20353.2" y2="11182.5" gradientUnits="userSpaceOnUse">
<stop stop-color="#010101" stop-opacity="0"/>
<stop offset="0.95" stop-color="#010101"/>
</linearGradient>
<linearGradient id="paint15_linear" x1="13098.9" y1="2581.81" x2="13211.4" y2="4218.47" gradientUnits="userSpaceOnUse">
<stop stop-color="#010101" stop-opacity="0"/>
<stop offset="0.95" stop-color="#010101"/>
</linearGradient>
<linearGradient id="paint16_linear" x1="1017.49" y1="612.055" x2="991.14" y2="629.364" gradientUnits="userSpaceOnUse">
<stop stop-color="#010101" stop-opacity="0"/>
<stop offset="0.95" stop-color="#010101"/>
</linearGradient>
<linearGradient id="paint17_linear" x1="617.778" y1="481.161" x2="606.79" y2="486.505" gradientUnits="userSpaceOnUse">
<stop stop-color="#010101" stop-opacity="0"/>
<stop offset="0.95" stop-color="#010101"/>
</linearGradient>
<clipPath id="clip0">
<rect width="176" height="133.995" fill="white"/>
</clipPath>
</defs>
</svg>
