<svg width="176" height="150" viewBox="0 0 176 150" fill="none" xmlns="http://www.w3.org/2000/svg">
<g clip-path="url(#clip0)">
<path opacity="0.18" d="M59.0936 4.29164C49.3645 9.51294 42.2839 19.0637 39.1273 29.6414C37.2626 35.9005 36.6788 42.5109 34.5546 48.6835C28.4955 66.2554 11.0425 77.6871 3.59975 94.7185C-0.545937 104.199 -1.26481 115.258 2.23227 124.987C5.72935 134.716 13.5343 142.98 23.2634 146.402C29.2414 148.51 35.6951 148.823 42.0136 149.023C53.9048 149.402 65.8446 149.445 77.5249 147.337C83.0922 146.337 88.5729 144.845 94.1888 144.197C105.053 142.937 116.144 144.851 126.944 143.116C134.462 141.894 141.586 138.932 148.396 135.516C153.504 132.954 158.531 130.111 162.747 126.219C173.897 115.993 178.027 99.4047 175.032 84.5732C172.038 69.7417 162.601 56.71 150.769 47.2782C145.553 43.1433 139.878 39.6408 134.413 35.8465C127.378 30.9562 120.695 25.5775 114.415 19.7502C99.3939 5.83209 80.0167 -6.92389 59.0936 4.29164Z" fill="#F20C0C"/>
<path d="M63.1636 126.808H104.35L97.0588 100.621H69.3145L63.1636 126.808Z" fill="#F20C0C"/>
<path d="M63.1636 126.808H104.35L97.0588 100.621H69.3145L63.1636 126.808Z" fill="url(#paint0_linear)"/>
<path d="M145.418 30.6359V98.1994C145.418 99.1701 145.227 100.131 144.855 101.028C144.483 101.925 143.939 102.74 143.252 103.426C142.565 104.112 141.75 104.656 140.853 105.027C139.956 105.398 138.995 105.589 138.024 105.588H31.3277C30.3572 105.589 29.3961 105.398 28.4993 105.027C27.6026 104.656 26.7877 104.112 26.1015 103.426C25.4152 102.739 24.871 101.924 24.5 101.028C24.1289 100.131 23.9383 99.1699 23.939 98.1994V30.6359C23.939 28.6763 24.7174 26.797 26.1031 25.4113C27.4887 24.0256 29.3681 23.2472 31.3277 23.2472H138.045C140.002 23.2515 141.877 24.0318 143.26 25.417C144.642 26.8022 145.418 28.6791 145.418 30.6359Z" fill="#F20C0C"/>
<path d="M145.418 30.636V89.8648H23.939V30.636C23.9404 28.6754 24.7199 26.7955 26.1062 25.4091C27.4926 24.0227 29.3725 23.2433 31.3331 23.2418H138.051C140.007 23.249 141.881 24.0312 143.262 25.417C144.643 26.8029 145.418 28.6796 145.418 30.636Z" fill="#473F47"/>
<path d="M143.613 32.0467V87.8865H25.7822V32.0467C25.7937 30.1582 26.5534 28.3513 27.8948 27.022C29.2363 25.6927 31.05 24.9495 32.9385 24.9552H136.446C138.336 24.9466 140.153 25.6885 141.496 27.0181C142.84 28.3477 143.601 30.1563 143.613 32.0467Z" fill="white"/>
<path opacity="0.18" d="M143.613 32.0467V87.8865H25.7822V32.0467C25.7937 30.1582 26.5534 28.3513 27.8948 27.022C29.2363 25.6927 31.05 24.9495 32.9385 24.9552H136.44C138.332 24.9452 140.15 25.6865 141.494 27.0163C142.839 28.346 143.601 30.1554 143.613 32.0467Z" fill="#F20C0C"/>
<path d="M142.608 60.9368H25.7715V88.3081H142.608V60.9368Z" fill="white"/>
<path d="M138.446 52.2022H106.048V84.957H138.446V52.2022Z" fill="url(#paint1_linear)"/>
<path d="M143.613 32.0467V42.3596H25.7822V32.0467C25.7937 30.1582 26.5534 28.3513 27.8948 27.022C29.2363 25.6927 31.05 24.9495 32.9385 24.9552H136.44C138.332 24.9452 140.15 25.6865 141.494 27.0163C142.839 28.346 143.601 30.1554 143.613 32.0467Z" fill="#F20C0C"/>
<path d="M143.613 32.0467V42.3596H25.7822V32.0467C25.7937 30.1582 26.5534 28.3513 27.8948 27.022C29.2363 25.6927 31.05 24.9495 32.9385 24.9552H136.44C138.332 24.9452 140.15 25.6865 141.494 27.0163C142.839 28.346 143.601 30.1554 143.613 32.0467Z" fill="#574949"/>
<path d="M140.64 50.2348H108.242V82.9895H140.64V50.2348Z" fill="white"/>
<path opacity="0.18" d="M138.948 52.7049H109.934V81.0113H138.948V52.7049Z" fill="#F20C0C"/>
<path d="M133.776 60.753C135.226 60.753 136.402 59.5769 136.402 58.1261C136.402 56.6754 135.226 55.4993 133.776 55.4993C132.325 55.4993 131.149 56.6754 131.149 58.1261C131.149 59.5769 132.325 60.753 133.776 60.753Z" fill="#F20C0C"/>
<path d="M109.934 68.5796L117.036 63.3529L126.063 68.5796H127.965L121.42 64.7258L126.765 60.645L139.651 68.1958V81.0113H109.934V68.5796Z" fill="url(#paint2_linear)"/>
<path d="M145.618 75.2495C146.487 75.631 147.193 76.3066 147.613 77.1575C147.739 77.3951 147.796 77.6632 147.778 77.9315C147.76 78.1999 147.667 78.4579 147.51 78.6763C147.369 78.816 147.199 78.9232 147.012 78.9904C146.826 79.0577 146.627 79.0833 146.429 79.0655C145.838 79.0214 145.263 78.8577 144.737 78.5844C144.261 78.3736 143.791 78.1412 143.321 77.9142C143.036 77.7976 142.778 77.6227 142.564 77.4007C142.29 76.9931 142.182 76.4963 142.262 76.0116C142.294 75.5414 142.467 74.3522 143.089 74.3036C143.509 74.3775 143.916 74.516 144.294 74.7144C144.746 74.8644 145.189 75.0432 145.618 75.2495Z" fill="#FFBAAA"/>
<path d="M143.499 74.1738C143.601 75.6033 143.538 77.0397 143.31 78.4546C142.133 78.1466 141.03 77.6043 140.067 76.8601C139.617 76.5824 139.203 76.2502 138.835 75.871C138.382 75.322 138.085 74.661 137.975 73.9576C137.786 72.8766 136.824 70.2389 138.165 70.8767C139.505 71.5145 142.143 73.4333 143.499 74.1738Z" fill="#F20C0C"/>
<path d="M133.527 108.864C134.41 110.278 135.42 111.609 136.543 112.842C138.279 114.652 140.124 116.354 142.067 117.939C143.024 118.76 143.98 119.593 144.899 120.463C145.661 121.182 146.634 121.679 146.823 122.803C146.937 123.463 146.823 124.257 147.321 124.706C147.513 124.847 147.742 124.93 147.98 124.943C148.218 124.957 148.455 124.901 148.661 124.782C149.073 124.539 149.417 124.197 149.661 123.787C149.771 123.641 149.853 123.476 149.904 123.301C149.95 123.107 149.95 122.905 149.904 122.711C149.699 121.787 148.985 121.09 148.358 120.376C147.801 119.744 147.296 119.066 146.85 118.349C146.461 117.797 146.023 117.279 145.542 116.804L141.878 112.674C140.559 111.188 139.208 109.647 138.635 107.761C138.478 107.019 138.216 106.304 137.856 105.637C136.916 104.264 134.721 104.058 133.284 104.707C131.462 105.518 132.797 107.739 133.527 108.864Z" fill="#FFBAAA"/>
<path d="M141.094 106.15C141.094 106.15 142.045 114.452 141.094 118.944C140.515 121.708 140.266 124.531 140.353 127.354C140.469 127.596 140.486 127.873 140.403 128.128C140.319 128.382 140.141 128.595 139.905 128.722C139.43 128.972 138.895 129.088 138.359 129.057L136.197 129.138C136.07 129.161 135.939 129.156 135.814 129.124C135.689 129.091 135.572 129.031 135.473 128.949C135.192 128.641 135.473 128.122 135.856 127.938C136.24 127.754 136.683 127.743 137.045 127.522C137.727 127.111 137.813 126.176 137.829 125.36L137.883 121.879C137.964 116.879 138.045 111.853 137.283 106.912C137.235 106.688 137.235 106.456 137.283 106.231C137.391 105.821 137.791 105.566 138.159 105.35C138.556 105.085 139.003 104.901 139.472 104.81C139.709 104.77 139.952 104.799 140.172 104.895C140.392 104.991 140.579 105.149 140.71 105.35" fill="#FFBAAA"/>
<path d="M129.246 75.5629C129.181 75.5017 129.104 75.4556 129.019 75.4278C128.533 75.2873 127.554 75.9683 127.122 76.1521C125.715 76.7684 124.188 77.0638 122.652 77.0169C121.257 76.847 119.883 76.5299 118.555 76.071C116.836 75.59 115.079 75.2765 113.388 74.7197C111.668 74.2267 110.105 73.2955 108.853 72.0172C108.572 72.2172 108.772 72.7685 108.474 72.9415C108.177 73.1144 107.934 72.7685 107.615 72.7415C106.469 72.6442 107.188 75.5575 107.361 76.0386C107.389 76.1509 107.447 76.2535 107.529 76.3359C107.63 76.4074 107.746 76.4537 107.869 76.471C111.955 77.3358 115.539 79.8708 119.631 80.7248C121.667 81.1375 123.765 81.1283 125.798 80.6978C127.77 80.3336 129.618 79.4764 131.17 78.206C131.306 78.0979 131.457 77.9195 131.365 77.7736C131.317 77.7047 131.246 77.6549 131.165 77.6331C130.681 77.4543 130.25 77.157 129.911 76.7683C129.652 76.4332 129.543 75.844 129.246 75.5629Z" fill="#FFBAAA"/>
<path d="M132.36 67.2878C132.479 67.5021 132.646 67.6855 132.849 67.8235C133.052 67.9614 133.284 68.0501 133.527 68.0823C133.651 68.0655 133.777 68.0922 133.884 68.158C133.925 68.2098 133.954 68.2701 133.969 68.3347C133.984 68.3992 133.985 68.4663 133.97 68.531L133.84 70.1525C133.817 70.2846 133.836 70.4209 133.895 70.5416C133.994 70.6597 134.132 70.7384 134.284 70.7632C134.878 70.9254 135.613 71.0497 136.03 70.6011C136.228 70.3396 136.347 70.026 136.37 69.6985C136.689 67.8283 136.992 65.9149 136.705 64.0448C136.532 62.9097 136.078 61.7206 135.084 61.126C133.954 60.445 131.041 60.2342 131.165 62.1368C131.287 62.8994 131.368 63.668 131.408 64.4393C131.401 65.468 131.735 66.4701 132.36 67.2878Z" fill="#FFBAAA"/>
<path d="M131.105 60.6125C131.035 60.8936 130.986 61.1908 130.927 61.4827L130.857 61.8557C130.846 61.8946 130.846 61.9357 130.857 61.9746C130.871 61.9944 130.888 62.0113 130.909 62.0243C130.929 62.0373 130.952 62.0461 130.976 62.0503L131.992 62.3854C132.063 62.4119 132.142 62.4119 132.213 62.3854C132.267 62.3622 132.314 62.3249 132.349 62.2773L132.77 61.7962L132.819 62.2827C132.819 62.3245 132.834 62.3648 132.862 62.3962C132.886 62.4174 132.916 62.4306 132.949 62.434L134.862 62.8826L134.981 62.6016C135.289 64.4665 135.267 66.371 134.916 68.2282C136.461 68.6835 138.106 68.6647 139.64 68.1742C139.852 68.1201 140.049 68.0205 140.218 67.8823C140.411 67.6823 140.545 67.4338 140.608 67.1634C140.964 65.9981 141.073 64.7711 140.928 63.5611C140.783 62.3511 140.386 61.1848 139.764 60.1369C139.488 59.5819 139.069 59.1106 138.551 58.7714C138.032 58.4323 137.432 58.2375 136.813 58.2072C135.58 58.0021 134.316 58.0872 133.121 58.4559C132.554 58.6412 132.046 58.9753 131.651 59.4234C131.377 59.7704 131.19 60.1782 131.105 60.6125Z" fill="#FB682D"/>
<path d="M132.986 87.5351C133.111 91.5943 131.635 95.4103 130.527 99.3128C130.041 101.01 129.5 102.756 129.678 104.507C129.676 104.554 129.676 104.601 129.678 104.648C135.029 106.188 140.899 106.956 146.077 104.902C145.524 102.166 145.231 99.3847 145.202 96.594C145.245 95.4936 145.169 94.3917 144.975 93.3078C144.559 91.4646 143.353 89.8972 142.121 88.4432C141.62 87.9469 141.226 87.3526 140.964 86.6973C140.811 86.0691 140.787 85.4163 140.894 84.7786C141.118 82.6837 141.167 80.5738 141.04 78.4708C140.905 76.5658 140.414 74.7031 139.591 72.9793C139.239 72.1943 138.755 71.4758 138.159 70.8551C137.553 70.2394 136.749 69.8568 135.889 69.7741C135.461 69.7359 135.03 69.8112 134.64 69.9925C134.25 70.1737 133.914 70.4544 133.667 70.8064C132.365 72.8171 130.192 73.2657 128.614 75.0656C128.522 75.1546 128.459 75.2697 128.435 75.3953C128.44 75.5308 128.487 75.6613 128.57 75.7683L130.241 78.4168C130.408 78.7005 130.604 78.9667 130.824 79.2113C131.024 79.4167 131.262 79.5843 131.457 79.7897C131.969 80.4269 132.286 81.1982 132.37 82.0111C132.719 83.8336 132.925 85.6806 132.986 87.5351Z" fill="#F20C0C"/>
<path d="M134.608 128.424L135.149 128.252C135.58 128.092 136.031 127.992 136.489 127.954C136.568 127.943 136.649 127.954 136.721 127.987C136.813 128.045 136.884 128.13 136.927 128.23C136.999 128.384 137.108 128.518 137.246 128.619C137.388 128.685 137.543 128.719 137.7 128.719C137.857 128.719 138.011 128.685 138.154 128.619C138.47 128.546 138.777 128.435 139.067 128.289C139.354 128.127 139.608 127.906 139.889 127.749C139.969 127.699 140.06 127.67 140.154 127.662C140.248 127.655 140.342 127.669 140.429 127.706C140.516 127.757 140.59 127.827 140.646 127.911C140.762 128.04 140.852 128.191 140.91 128.354C140.94 128.517 140.94 128.683 140.91 128.846C140.905 128.993 140.863 129.137 140.786 129.262C140.697 129.351 140.591 129.419 140.473 129.462C140.355 129.505 140.23 129.522 140.105 129.511L137.467 129.678C136.64 129.733 135.808 129.781 134.981 129.77C134.526 129.779 134.072 129.73 133.63 129.624C133.57 129.624 133.5 129.587 133.478 129.522C133.466 129.481 133.466 129.438 133.478 129.397C133.631 129.131 133.835 128.898 134.079 128.712C134.323 128.527 134.603 128.392 134.9 128.316" fill="#F20C0C"/>
<path d="M149.348 121.722C149.277 121.987 149.348 122.263 149.283 122.544C149.208 122.744 149.094 122.928 148.948 123.084L148.304 123.879C148.235 123.976 148.149 124.06 148.05 124.128C147.912 124.183 147.764 124.209 147.615 124.204C147.466 124.2 147.32 124.164 147.186 124.1C147.148 124.082 147.106 124.072 147.064 124.072C147.022 124.072 146.98 124.082 146.942 124.1C146.902 124.143 146.874 124.195 146.861 124.252L146.494 125.533C146.34 126.06 146.257 126.605 146.245 127.154C146.296 127.22 146.363 127.272 146.44 127.306C147.029 127.603 148.029 126.279 148.526 125.852C149.006 125.39 149.375 124.827 149.607 124.203C149.748 123.879 149.883 123.555 150.007 123.225C150.158 122.927 150.259 122.605 150.304 122.274C150.306 122.182 150.282 122.092 150.236 122.014C150.189 121.936 150.121 121.872 150.039 121.83C149.877 121.766 149.429 121.436 149.348 121.722Z" fill="#F20C0C"/>
<path d="M129.662 104.507C130.048 104.641 130.457 104.689 130.863 104.649C131.269 104.609 131.662 104.481 132.013 104.275C133.24 103.507 133.727 101.972 133.954 100.551C134.44 97.421 134.154 94.0212 135.797 91.3241C136.3 90.5025 137.002 89.6701 136.878 88.708C136.754 87.7459 135.835 87.0216 135.294 86.1676C134.775 85.1882 134.499 84.0981 134.489 82.9895C134.3 80.9247 134.121 78.8546 133.949 76.7899C133.949 77.3304 131.662 78.4114 130.83 79.2167C131.03 79.4221 131.268 79.5897 131.462 79.7951C131.974 80.4323 132.291 81.2036 132.376 82.0166C132.717 83.8379 132.916 85.683 132.97 87.5351C133.095 91.5943 131.619 95.4103 130.511 99.3128C130.024 100.999 129.484 102.756 129.662 104.507Z" fill="url(#paint3_linear)"/>
<path d="M49.7158 42.4352C49.7158 43.9254 49.2739 45.3822 48.446 46.6213C47.6181 47.8603 46.4413 48.8261 45.0646 49.3963C43.6878 49.9666 42.1728 50.1158 40.7112 49.8251C39.2496 49.5344 37.9071 48.8168 36.8533 47.763C35.7996 46.7093 35.082 45.3667 34.7913 43.9052C34.5005 42.4436 34.6497 40.9286 35.22 39.5518C35.7903 38.175 36.7561 36.9983 37.9951 36.1704C39.2342 35.3424 40.6909 34.9005 42.1812 34.9005C43.1714 34.8977 44.1525 35.0906 45.0679 35.4683C45.9834 35.8459 46.8151 36.4008 47.5153 37.101C48.2156 37.8013 48.7705 38.633 49.1481 39.5484C49.5258 40.4639 49.7187 41.4449 49.7158 42.4352Z" fill="white"/>
<path d="M47.6295 47.6403C46.3866 48.9413 44.7191 49.7545 42.9287 49.933C41.1383 50.1114 39.3432 49.6433 37.8679 48.6132L38.2355 47.2836C38.3619 46.8194 38.6371 46.4094 39.0188 46.1166C39.4005 45.8237 39.8677 45.664 40.3489 45.662H41.1974L44.3648 45.7215C44.8354 45.7255 45.3004 45.8232 45.7329 46.0088C46.1653 46.1944 46.5565 46.4642 46.8836 46.8025L47.6295 47.6403Z" fill="#F20C0C"/>
<path d="M39.0624 44.4135L44.7701 44.1595C44.7701 44.1595 45.3106 39.3543 43.1973 38.349C41.2406 37.4085 39.6948 38.2301 39.2408 39.9057C38.7867 41.5812 39.0624 44.4135 39.0624 44.4135Z" fill="#FB682D"/>
<path d="M41.1975 44.2459V45.6999C41.1842 45.8383 41.1842 45.9776 41.1975 46.1161C41.2598 46.2945 41.3589 46.4579 41.4883 46.5957C41.6177 46.7335 41.7746 46.8426 41.9488 46.916C42.079 46.9931 42.2251 47.0393 42.3758 47.0511C42.4518 47.0591 42.5286 47.049 42.6 47.0218C42.6713 46.9946 42.7353 46.9509 42.7866 46.8944C42.8592 46.7898 42.9055 46.6693 42.9218 46.543C43.0299 46.2646 43.0652 45.9633 43.0245 45.6674C42.938 45.4242 42.8893 45.1594 42.8191 44.9053L42.565 43.9378L41.1975 44.2459Z" fill="#FFBAAA"/>
<path d="M41.2407 44.754C41.2407 44.754 41.7812 45.8782 42.3974 45.7539C43.0136 45.6296 42.7704 44.6729 42.7704 44.6729L41.2407 44.754Z" fill="url(#paint4_linear)"/>
<path d="M43.6514 43.2189C43.5679 43.6397 43.4026 44.0401 43.165 44.3972C43.0439 44.5766 42.8837 44.7262 42.6965 44.8348C42.5092 44.9434 42.2998 45.0082 42.084 45.0242C41.7781 45.0252 41.4796 44.9307 41.23 44.754C40.2679 44.1378 39.8625 42.9217 39.7976 41.7758C39.737 41.3246 39.7774 40.8656 39.9157 40.4319C40.054 39.9982 40.2869 39.6006 40.5976 39.2678C41.0563 38.9171 41.6342 38.7603 42.2072 38.8311C42.7802 38.9018 43.3026 39.1945 43.6623 39.6462C44.3001 40.5704 43.8947 42.2406 43.6514 43.2189Z" fill="#FFBAAA"/>
<path d="M39.8029 40.0354L39.657 41.6569H40.1975L40.4083 40.6408L40.5272 41.6569H41.5271L41.6136 40.6138L41.7541 41.5542H42.7973V40.5759L43.0892 41.5921H44.0621C44.0621 41.5921 44.635 39.6895 43.327 39.0193C42.019 38.349 40.2191 38.6409 39.8029 40.0354Z" fill="#FB682D"/>
<path d="M54.8831 53.6183H32.8844C32.571 53.6183 32.3169 53.8724 32.3169 54.1859V54.267C32.3169 54.5804 32.571 54.8345 32.8844 54.8345H54.8831C55.1965 54.8345 55.4506 54.5804 55.4506 54.267V54.1859C55.4506 53.8724 55.1965 53.6183 54.8831 53.6183Z" fill="#F20C0C"/>
<path d="M47.6295 56.5533H32.7817C32.525 56.5533 32.3169 56.7614 32.3169 57.0181V57.3046C32.3169 57.5613 32.525 57.7694 32.7817 57.7694H47.6295C47.8862 57.7694 48.0943 57.5613 48.0943 57.3046V57.0181C48.0943 56.7614 47.8862 56.5533 47.6295 56.5533Z" fill="#F20C0C"/>
<path d="M65.6879 56.5533H51.2941C51.0404 56.5533 50.8347 56.759 50.8347 57.0127V57.31C50.8347 57.5637 51.0404 57.7694 51.2941 57.7694H65.6879C65.9416 57.7694 66.1473 57.5637 66.1473 57.31V57.0127C66.1473 56.759 65.9416 56.5533 65.6879 56.5533Z" fill="#F20C0C"/>
<path d="M82.3734 56.5533H67.9797C67.726 56.5533 67.5203 56.759 67.5203 57.0127V57.31C67.5203 57.5637 67.726 57.7694 67.9797 57.7694H82.3734C82.6271 57.7694 82.8328 57.5637 82.8328 57.31V57.0127C82.8328 56.759 82.6271 56.5533 82.3734 56.5533Z" fill="#F20C0C"/>
<path opacity="0.18" d="M91.9349 66.6121H52.5049V72.2064H91.9349V66.6121Z" fill="#F20C0C"/>
<path opacity="0.18" d="M91.9349 76.4008H52.5049V81.995H91.9349V76.4008Z" fill="#F20C0C"/>
</g>
<defs>
<linearGradient id="paint0_linear" x1="86.1297" y1="94.8374" x2="81.703" y2="154.504" gradientUnits="userSpaceOnUse">
<stop offset="0.01"/>
<stop offset="0.08" stop-opacity="0.69"/>
<stop offset="0.21" stop-opacity="0.32"/>
<stop offset="1" stop-opacity="0"/>
</linearGradient>
<linearGradient id="paint1_linear" x1="225.246" y1="17.2908" x2="0.621639" y2="129.144" gradientUnits="userSpaceOnUse">
<stop offset="0.01"/>
<stop offset="0.13" stop-opacity="0.69"/>
<stop offset="0.25" stop-opacity="0.32"/>
<stop offset="1" stop-opacity="0"/>
</linearGradient>
<linearGradient id="paint2_linear" x1="6459.29" y1="4113.54" x2="7119.38" y2="722.125" gradientUnits="userSpaceOnUse">
<stop offset="0.01"/>
<stop offset="0.13" stop-opacity="0.69"/>
<stop offset="0.25" stop-opacity="0.32"/>
<stop offset="1" stop-opacity="0"/>
</linearGradient>
<linearGradient id="paint3_linear" x1="-1723.43" y1="5607.56" x2="-2789.4" y2="5668.94" gradientUnits="userSpaceOnUse">
<stop offset="0.01"/>
<stop offset="0.13" stop-opacity="0.69"/>
<stop offset="0.25" stop-opacity="0.32"/>
<stop offset="1" stop-opacity="0"/>
</linearGradient>
<linearGradient id="paint4_linear" x1="230.352" y1="176.899" x2="234.929" y2="194.329" gradientUnits="userSpaceOnUse">
<stop offset="0.01"/>
<stop offset="0.13" stop-opacity="0.69"/>
<stop offset="0.25" stop-opacity="0.32"/>
<stop offset="1" stop-opacity="0"/>
</linearGradient>
<clipPath id="clip0">
<rect width="176" height="149.245" fill="white"/>
</clipPath>
</defs>
</svg>
