<svg width="75" height="75" viewBox="0 0 75 75" fill="none" xmlns="http://www.w3.org/2000/svg">
<circle cx="37.5001" cy="37.5" r="32.4324" fill="white"/>
<path fill-rule="evenodd" clip-rule="evenodd" d="M34.359 0.0469461C29.4437 0.615649 26.1547 1.46305 22.2536 3.16535C18.2944 4.89316 14.2356 7.6978 10.9757 10.9585C6.46264 15.4726 3.02848 21.3487 1.37652 27.3837C-2.99618 43.3585 3.26414 59.9455 17.0976 69.0365C21.523 71.9449 26.6125 73.8721 32.0931 74.7145C34.538 75.0903 40.292 75.0963 42.6919 74.7255C50.9673 73.4471 58.095 69.8565 63.8797 64.0522C68.835 59.0801 72.206 53.0491 73.8359 46.2396C74.2911 44.3372 74.7076 41.7223 74.7076 40.7654C74.7076 40.4376 74.7734 40.1287 74.8538 40.0788C74.9425 40.0238 75 38.9497 75 37.3478C75 35.6249 74.9493 34.739 74.8538 34.7981C74.7652 34.8529 74.7076 34.647 74.7076 34.2754C74.7076 33.214 74.2806 30.6229 73.7492 28.4595C71.3705 18.7755 65.2295 10.4693 56.58 5.23656C52.5646 2.80729 47.6853 1.06172 42.8381 0.320076C41.3803 0.0969661 35.5492 -0.0907922 34.359 0.0469461ZM35.0169 14.203C26.1342 15.1302 18.4713 21.2512 15.512 29.7832C13.632 35.2035 13.9293 41.6985 16.2924 46.8303L16.7759 47.8804L15.5557 53.8076C14.8847 57.0675 14.3344 59.9147 14.3332 60.1347C14.3316 60.4005 14.4528 60.6149 14.694 60.7736C15.041 61.0015 15.3265 60.9483 21.0365 59.5908L27.0159 58.1693L28.6773 58.8353C31.979 60.1585 34.6397 60.6222 38.2331 60.5003C42.7561 60.347 46.6611 59.0886 50.4553 56.5621C52.3108 55.3267 55.3325 52.2932 56.5668 50.4271C59.5661 45.8925 60.902 40.887 60.5127 35.6415C60.2027 31.466 58.9674 27.8538 56.6642 24.3882C51.9124 17.2384 43.5649 13.3109 35.0169 14.203ZM35.3597 19.1964C32.5717 19.5172 29.7572 20.5625 27.3471 22.1724C23.219 24.9299 20.3759 29.3136 19.5194 34.2421C19.2103 36.021 19.2372 38.9302 19.5793 40.6971C19.9362 42.5402 20.3136 43.6594 21.246 45.6382L21.9993 47.2371L21.2551 50.8822C20.8457 52.887 20.5307 54.5274 20.555 54.5274C20.5792 54.5274 22.1202 54.1643 23.9795 53.7206C25.8387 53.2769 27.4888 52.9138 27.6462 52.9138C27.8037 52.9138 28.5067 53.2028 29.2087 53.5559C33.3176 55.623 37.7914 56.0759 42.29 54.8802C44.0626 54.409 46.8321 53.0275 48.412 51.8264C52.9991 48.3393 55.5567 43.1337 55.5567 37.2851C55.5567 32.3483 53.719 27.9062 50.2276 24.4029C47.319 21.4844 43.4845 19.6565 39.2852 19.1866C37.7008 19.0094 36.97 19.0111 35.3597 19.1964ZM29.1693 26.27C28.2269 26.6992 26.5972 28.6081 26.0696 29.9004C25.7218 30.7526 25.7281 32.9645 26.0821 34.2847C26.7343 36.717 28.4235 39.326 31.0697 41.9882C35.9585 46.9066 41.1795 49.3042 45.1575 48.4576C46.4461 48.1835 47.3752 47.6227 48.3936 46.5048C49.5204 45.2677 49.9089 44.5188 49.8095 43.7751C49.6754 42.7728 49.2605 42.5267 46.3256 41.7083C44.5624 41.2168 43.6281 41.0224 43.3566 41.0908C43.1386 41.1456 42.5078 41.6169 41.9548 42.1383C41.0576 42.9836 40.885 43.0859 40.3537 43.0859C39.2226 43.0859 37.1733 41.7157 34.5233 39.1874C31.6239 36.4212 31.1938 35.4488 32.2536 34.0557C33.0568 33 33.3345 32.4882 33.3351 32.0633C33.336 31.4401 31.1705 26.7089 30.7613 26.4399C30.2509 26.1044 29.6692 26.0424 29.1693 26.27ZM0.0649027 37.5118C0.0649027 39.0043 0.0866851 39.6148 0.113146 38.8686C0.139752 38.1223 0.139752 36.9011 0.113146 36.1549C0.0866851 35.4086 0.0649027 36.0192 0.0649027 37.5118Z" fill="#29A71A"/>
</svg>
